HIERARCHY
ROOT Hips
{
	OFFSET 0.000000 0.000000 0.000000
	CHANNELS 6 Xposition Yposition Zposition Xrotation Yrotation Zrotation
	JOINT LeftUpLeg_virtual
	{
		OFFSET 0.000000 0.000000 0.000000
		CHANNELS 3 Xrotation Yrotation Zrotation
		JOINT LeftUpLeg
		{
			OFFSET 15.427100 -6.655098 0.678600
			CHANNELS 3 Xrotation Yrotation Zrotation
			JOINT LeftLeg
			{
				OFFSET 4.081073 -39.591068 13.024000
				CHANNELS 3 Xrotation Yrotation Zrotation
				JOINT LeftFoot
				{
					OFFSET -4.081074 -37.707932 -15.979700
					CHANNELS 3 Xrotation Yrotation Zrotation
					JOINT LeftToeBase
					{
						OFFSET 5.346399 -15.068900 20.645000
						CHANNELS 3 Xrotation Yrotation Zrotation
						JOINT LeftToe_End
						{
							OFFSET 2.754700 0.931300 11.300900
							CHANNELS 3 Xrotation Yrotation Zrotation
							End Site
							{
								OFFSET 0 0 0
							}
						}
					}
				}
			}
		}
	}
	JOINT RightUpLeg_virtual
	{
		OFFSET 0.000000 0.000000 0.000000
		CHANNELS 3 Xrotation Yrotation Zrotation
		JOINT RightUpLeg
		{
			OFFSET -15.569500 -6.655098 0.678600
			CHANNELS 3 Xrotation Yrotation Zrotation
			JOINT RightLeg
			{
				OFFSET -4.081825 -39.591045 13.023800
				CHANNELS 3 Xrotation Yrotation Zrotation
				JOINT RightFoot
				{
					OFFSET 4.081824 -37.707954 -15.979600
					CHANNELS 3 Xrotation Yrotation Zrotation
					JOINT RightToeBase
					{
						OFFSET -5.346400 -15.068900 20.645000
						CHANNELS 3 Xrotation Yrotation Zrotation
						JOINT RightToe_End
						{
							OFFSET -2.754700 0.931300 11.300900
							CHANNELS 3 Xrotation Yrotation Zrotation
							End Site
							{
								OFFSET 0 0 0
							}
						}
					}
				}
			}
		}
	}
	JOINT Spine_virtual
	{
		OFFSET 0.000000 0.000000 0.000000
		CHANNELS 3 Xrotation Yrotation Zrotation
		JOINT Spine
		{
			OFFSET -0.279200 12.230698 -2.892100
			CHANNELS 3 Xrotation Yrotation Zrotation
			JOINT Spine1
			{
				OFFSET -0.232667 10.192268 -1.242267
				CHANNELS 3 Xrotation Yrotation Zrotation
				JOINT Spine1_split
				{
					OFFSET -0.232667 10.192268 -1.242267
					CHANNELS 3 Xrotation Yrotation Zrotation
					JOINT Spine2
					{
						OFFSET -0.232667 10.192268 -1.242267
						CHANNELS 3 Xrotation Yrotation Zrotation
						JOINT Neck_virtual
						{
							OFFSET 0.000000 0.000000 0.000000
							CHANNELS 3 Xrotation Yrotation Zrotation
							JOINT Neck
							{
								OFFSET -0.418800 17.814194 8.416900
								CHANNELS 3 Xrotation Yrotation Zrotation
								JOINT Head
								{
									OFFSET 0.000000 7.031097 3.806800
									CHANNELS 3 Xrotation Yrotation Zrotation
									JOINT HeadTop_End
									{
										OFFSET 0.000000 24.646606 12.978600
										CHANNELS 3 Xrotation Yrotation Zrotation
										End Site
										{
											OFFSET 0 0 0
										}
									}
								}
							}
						}
						JOINT LeftShoulder_virtual
						{
							OFFSET 0.000000 0.000000 0.000000
							CHANNELS 3 Xrotation Yrotation Zrotation
							JOINT LeftShoulder
							{
								OFFSET 8.476499 7.247704 -3.868750
								CHANNELS 3 Xrotation Yrotation Zrotation
								JOINT LeftShoulder_split
								{
									OFFSET 8.476499 7.247704 -3.868750
									CHANNELS 3 Xrotation Yrotation Zrotation
									JOINT LeftArm
									{
										OFFSET 9.308998 -2.777710 0.208600
										CHANNELS 3 Xrotation Yrotation Zrotation
										JOINT LeftForeArm
										{
											OFFSET 29.972298 0.000000 0.000000
											CHANNELS 3 Xrotation Yrotation Zrotation
											JOINT LeftHand
											{
												OFFSET 26.026505 0.000000 0.000000
												CHANNELS 3 Xrotation Yrotation Zrotation
												End Site
												{
													OFFSET 0 0 0
												}
											}
										}
									}
								}
							}
						}
						JOINT RightShoulder_virtual
						{
							OFFSET 0.000000 0.000000 0.000000
							CHANNELS 3 Xrotation Yrotation Zrotation
							JOINT RightShoulder
							{
								OFFSET -7.570500 7.247704 -3.868750
								CHANNELS 3 Xrotation Yrotation Zrotation
								JOINT RightShoulder_split
								{
									OFFSET -7.570500 7.247704 -3.868750
									CHANNELS 3 Xrotation Yrotation Zrotation
									JOINT RightArm
									{
										OFFSET -9.308998 -2.777710 0.208500
										CHANNELS 3 Xrotation Yrotation Zrotation
										JOINT RightForeArm
										{
											OFFSET -29.972300 0.000000 0.000000
											CHANNELS 3 Xrotation Yrotation Zrotation
											JOINT RightHand
											{
												OFFSET -26.026505 0.000000 0.000000
												CHANNELS 3 Xrotation Yrotation Zrotation
												End Site
												{
													OFFSET 0 0 0
												}
											}
										}
									}
								}
							}
						}
					}
				}
			}
		}
	}
}
MOTION
Frames: 7
Frame Time: 0.03333333
1.156655 90.227791 -4.083130 0.000000 0.000000 0.000000 -2.256370 4.840340 1.331005 -7.670159 8.039464 8.822340 23.087274 -1.145210 -3.600419 -15.988769 1.235736 -4.641105 -0.402747 0.067033 0.577373 0.000000 0.000000 0.000000 -2.528688 4.372049 0.973726 -0.296046 -3.315948 -6.658192 21.157110 -6.758047 5.224627 -13.398331 -20.704865 2.659472 -1.871661 0.417703 0.280875 0.000000 0.000000 0.000000 -1.840346 3.222771 0.709032 -1.256952 -1.631993 -2.634989 0.857435 -0.187819 1.921266 1.566849 -1.184898 -0.130391 0.000000 0.000000 0.000000 0.204415 -0.113957 1.484531 7.449707 1.606348 -0.920734 -2.961466 0.416441 2.108042 0.000000 0.000000 0.000000 0.706591 0.287472 1.069373 6.722817 -24.893058 -5.945933 -0.631272 -2.219508 -1.646722 7.500167 4.938514 -79.678186 -2.317438 -16.381924 1.680598 0.000000 0.000000 0.000000 0.605528 0.239033 2.052420 1.954505 -5.946229 9.250523 0.853948 5.584216 -0.897314 6.779352 17.788077 73.156920 1.469702 15.020921 -0.645264 0.000000 0.000000 0.000000 
1.033838 90.201981 -4.206024 0.000000 0.000000 0.000000 -2.223251 4.970032 1.336619 -7.651238 8.184806 8.833651 23.076440 -1.185064 -3.666854 -16.049997 1.188225 -4.575034 -0.379922 0.064199 0.596482 0.000000 0.000000 0.000000 -2.479862 4.447704 0.980375 -0.337479 -3.378043 -6.590946 21.235775 -6.838884 5.242059 -13.465595 -20.682276 2.521767 -1.764117 0.434622 0.264493 0.000000 0.000000 0.000000 -1.812385 3.063469 0.816699 -1.312044 -1.631888 -2.678905 0.807186 -0.213010 1.885464 1.517838 -1.172928 -0.123162 0.000000 0.000000 0.000000 0.201766 -0.108611 1.446896 7.562385 1.649071 -1.076320 -2.917153 0.552399 1.972279 0.000000 0.000000 0.000000 0.683441 0.269933 1.041904 6.773852 -24.893830 -5.979776 -0.590843 -2.014997 -1.872684 7.384696 4.665341 -79.818929 -2.336314 -16.602308 1.657393 0.000000 0.000000 0.000000 0.574667 0.229621 2.066581 1.924447 -5.956142 9.232175 0.765948 5.898991 -0.958282 6.980000 17.669800 73.110837 1.523917 14.985707 -0.714096 0.000000 0.000000 0.000000 
0.897220 90.151535 -4.245529 0.000000 0.000000 0.000000 -2.247188 5.076117 1.327489 -7.597958 8.331400 8.872229 23.013843 -1.204157 -3.679596 -16.056387 1.182554 -4.528641 -0.385346 0.062074 0.596052 0.000000 0.000000 0.000000 -2.406911 4.488847 0.980442 -0.405870 -3.302584 -6.588006 21.388783 -6.865253 5.303975 -13.235418 -20.634765 2.586676 -1.992690 0.458736 0.220991 0.000000 0.000000 0.000000 -1.818588 3.080214 0.911809 -1.340948 -1.603359 -2.703496 0.716254 -0.240082 1.840273 1.437835 -1.055525 -0.032659 0.000000 0.000000 0.000000 0.188191 -0.109780 1.422486 7.585775 1.690648 -1.297765 -2.926395 0.522097 1.879198 0.000000 0.000000 0.000000 0.635354 0.265943 1.030101 6.794928 -24.960844 -6.075139 -0.640774 -1.834880 -2.101942 7.503496 4.004137 -79.736250 -2.197875 -16.792278 1.648625 0.000000 0.000000 0.000000 0.543363 0.213107 2.051036 1.862331 -5.902332 9.289945 0.856707 6.100449 -1.092524 6.956272 17.685002 72.880379 1.525619 15.038576 -0.704169 0.000000 0.000000 0.000000 
0.780803 90.095497 -4.179253 0.000000 0.000000 0.000000 -2.313594 5.105864 1.294092 -7.519705 8.458846 8.937096 22.895535 -1.172063 -3.628539 -16.010032 1.205097 -4.501258 -0.408936 0.062364 0.575343 0.000000 0.000000 0.000000 -2.302518 4.539766 0.962297 -0.450894 -3.139820 -6.610522 21.550613 -6.862403 5.378249 -12.880301 -20.564875 2.725793 -2.414230 0.490743 0.169738 0.000000 0.000000 0.000000 -1.817352 3.242250 0.963460 -1.324024 -1.568550 -2.706080 0.594997 -0.273773 1.794490 1.416717 -1.015778 0.131999 0.000000 0.000000 0.000000 0.161676 -0.116971 1.419430 7.543577 1.761610 -1.528999 -2.960936 0.334631 1.848385 0.000000 0.000000 0.000000 0.554732 0.267571 1.041177 6.791515 -25.079206 -6.172423 -0.730394 -1.637060 -2.348929 7.805349 3.135023 -79.392596 -1.943648 -16.946562 1.615726 0.000000 0.000000 0.000000 0.492568 0.180277 2.011479 1.774365 -5.787002 9.451125 1.088918 6.104720 -1.171601 6.767916 17.799587 72.552195 1.475355 15.263875 -0.629390 0.000000 0.000000 0.000000 
0.706067 90.055962 -4.038567 0.000000 0.000000 0.000000 -2.354788 5.079164 1.226116 -7.430933 8.512445 9.028796 22.744504 -1.078669 -3.499457 -15.933558 1.225639 -4.495503 -0.447928 0.065440 0.547216 0.000000 0.000000 0.000000 -2.188869 4.603649 0.911932 -0.481624 -2.995391 -6.619869 21.710499 -6.889055 5.446738 -12.566115 -20.496168 2.788810 -2.752836 0.531871 0.125903 0.000000 0.000000 0.000000 -1.776504 3.437819 0.951081 -1.240897 -1.543664 -2.678143 0.457161 -0.316903 1.756428 1.464116 -1.057012 0.225330 0.000000 0.000000 0.000000 0.110968 -0.134462 1.438591 7.455756 1.853601 -1.708207 -3.019823 0.043398 1.878393 0.000000 0.000000 0.000000 0.451230 0.269065 1.074874 6.789430 -25.223660 -6.165823 -0.746746 -1.462334 -2.587219 8.230970 2.215418 -78.814741 -1.660407 -17.155461 1.517371 0.000000 0.000000 0.000000 0.407632 0.125636 1.957404 1.667282 -5.630850 9.688954 1.397304 5.953860 -1.208006 6.471182 17.993655 72.209641 1.390597 15.799486 -0.489921 0.000000 0.000000 0.000000 
0.676409 90.032486 -3.882927 0.000000 0.000000 0.000000 -2.337682 5.027361 1.121268 -7.331145 8.424547 9.121908 22.605592 -0.917205 -3.276038 -15.876959 1.214617 -4.499950 -0.485575 0.069902 0.523096 0.000000 0.000000 0.000000 -2.092373 4.653655 0.831443 -0.542860 -2.961351 -6.602249 21.933672 -6.946355 5.520519 -12.346645 -20.423217 2.795661 -2.931108 0.577143 0.094823 0.000000 0.000000 0.000000 -1.694948 3.580198 0.866131 -1.066550 -1.538440 -2.619303 0.316618 -0.372405 1.728911 1.597745 -1.110213 0.302954 0.000000 0.000000 0.000000 0.023617 -0.161456 1.471035 7.341422 1.967515 -1.810431 -3.071103 -0.310620 1.969722 0.000000 0.000000 0.000000 0.324875 0.267398 1.126414 6.809612 -25.371588 -5.989670 -0.624779 -1.338901 -2.775358 8.645028 1.384274 -78.109313 -1.402434 -17.396173 1.336581 0.000000 0.000000 0.000000 0.284983 0.057652 1.896878 1.552217 -5.456266 9.943810 1.790675 5.716288 -1.173011 6.108736 18.231751 71.932636 1.301257 16.640709 -0.300470 0.000000 0.000000 0.000000 
0.710182 90.005287 -3.760101 0.000000 0.000000 0.000000 -2.267181 4.958641 0.995296 -7.206121 8.149158 9.165444 22.539115 -0.676337 -2.963443 -15.909638 1.156790 -4.517230 -0.515162 0.078634 0.500254 0.000000 0.000000 0.000000 -2.051739 4.642644 0.729834 -0.675546 -3.108011 -6.574011 22.305736 -6.974789 5.595400 -12.218948 -20.294181 2.877583 -3.144719 0.622126 0.057167 0.000000 0.000000 0.000000 -1.590085 3.587081 0.728515 -0.776182 -1.559794 -2.534562 0.191256 -0.422892 1.716593 1.805793 -1.063387 0.270122 0.000000 0.000000 0.000000 -0.092966 -0.189317 1.505806 7.205195 2.093331 -1.821450 -3.074613 -0.687620 2.093790 0.000000 0.000000 0.000000 0.190776 0.266227 1.188128 6.860052 -25.460217 -5.633204 -0.375883 -1.274020 -2.914983 8.906255 0.696314 -77.440712 -1.181604 -17.728403 1.093182 0.000000 0.000000 0.000000 0.150824 -0.006252 1.833556 1.431862 -5.280954 10.165193 2.225911 5.466821 -1.111306 5.659340 18.422106 71.701297 1.233169 17.578976 -0.092082 0.000000 0.000000 0.000000 
